<?xml version="1.0" ?><svg data-name="Design Convert" id="Design_Convert" viewBox="0 0 64 64" xmlns="http://www.w3.org/2000/svg"><defs><style>.cls-1{fill:#010101;}</style></defs><title/><path class="cls-1" d="M47,57H17a5,5,0,0,1-5-5V37H10.76a3.63,3.63,0,0,1-3.29-2.36,5.27,5.27,0,0,1,.76-5.59L25.29,10.12a8.78,8.78,0,0,1,13.42,0L55.77,29.05h0a5.27,5.27,0,0,1,.76,5.59A3.63,3.63,0,0,1,53.24,37H52V52A5,5,0,0,1,47,57ZM32,9a7,7,0,0,0-5.23,2.46L9.71,30.39a3.35,3.35,0,0,0-.42,3.44A1.78,1.78,0,0,0,10.76,35H13a1,1,0,0,1,1,1V52a3,3,0,0,0,3,3H47a3,3,0,0,0,3-3V36a1,1,0,0,1,1-1h2.24a1.78,1.78,0,0,0,1.47-1.17,3.35,3.35,0,0,0-.42-3.44h0L37.23,11.46A7,7,0,0,0,32,9Z"/><path class="cls-1" d="M38,57H26a1,1,0,0,1-1-1V40a7,7,0,0,1,14,0V56A1,1,0,0,1,38,57ZM27,55H37V40a5,5,0,0,0-10,0Z"/></svg>