<?xml version="1.0" encoding="utf-8"?>
<!-- Generator: Adobe Illustrator 24.0.0, SVG Export Plug-In . SVG Version: 6.00 Build 0)  -->
<svg version="1.1" id="Layer_1" xmlns="http://www.w3.org/2000/svg" xmlns:xlink="http://www.w3.org/1999/xlink" x="0px" y="0px"
	 viewBox="0 0 64 64" style="enable-background:new 0 0 64 64;" xml:space="preserve">
<path d="M54.8,32.5L43.9,3.5C43.7,3.2,43.5,3,43.1,3h-22c-0.4,0-0.7,0.2-0.8,0.5L9.4,32.5c-0.1,0.3-0.1,0.5,0.1,0.8
	c0.2,0.3,0.4,0.4,0.7,0.4h13.5c-0.3,1.2-0.4,2.4-0.4,3.6c0,3.8,1.2,7.3,3.1,9.6c-2,0.6-3.1,1.5-3.1,2.6c0,1.1,0.9,1.8,2.1,2.2
	c-5.4,1.2-9.5,3.6-10.6,6.8c-0.1,0.3-0.1,0.5,0.1,0.8c0.2,0.3,0.4,0.4,0.7,0.4h33c0.3,0,0.5-0.2,0.7-0.4c0.2-0.3,0.2-0.5,0.1-0.8
	c-1.2-3.2-5.2-5.7-10.6-6.8c1.2-0.5,2.1-1.2,2.1-2.3c0-1.2-1.1-2-3.2-2.6c2-2.3,3.2-5.8,3.2-9.6c0-1.2-0.1-2.5-0.4-3.6H54
	c0.3,0,0.5-0.2,0.7-0.4C54.9,33.1,54.9,32.7,54.8,32.5z M33,31.9V4.7h3.1l6.6,27.2C42.7,31.9,33,31.9,33,31.9z M21.5,31.9l6.6-27.2
	h3.1v27.2H21.5z M21.7,4.7h4.6l-6.6,27.2h-8.3L21.7,4.7z M47.2,58.1H17c2.2-3.1,8.3-5.2,15.1-5.2C38.8,52.8,45,55,47.2,58.1z
	 M39.2,37.3c0,3.9-1.4,7.5-3.7,9.4c-0.3,0.2-0.4,0.5-0.3,0.9c0.1,0.4,0.4,0.5,0.7,0.6c2.3,0.4,3.2,1.1,3.3,1.2
	c-0.2,0.4-2.5,1.6-7.1,1.6s-6.9-1.2-7.1-1.6c0.1-0.3,1-0.9,3.3-1.2c0.4-0.1,0.6-0.3,0.7-0.6c0.1-0.4,0-0.7-0.3-0.9
	c-2.3-2-3.7-5.5-3.7-9.4c0-1.2,0.2-2.5,0.4-3.6h13.2C39,34.8,39.2,36,39.2,37.3z M44.4,31.9L37.9,4.7h4.6l10.3,27.2
	C52.8,31.9,44.4,31.9,44.4,31.9z"/>
</svg>
