<?xml version="1.0" encoding="utf-8"?>
<!-- Generator: Adobe Illustrator 24.0.0, SVG Export Plug-In . SVG Version: 6.00 Build 0)  -->
<svg version="1.1" id="Layer_1" xmlns="http://www.w3.org/2000/svg" xmlns:xlink="http://www.w3.org/1999/xlink" x="0px" y="0px"
	 viewBox="0 0 512 512" style="enable-background:new 0 0 512 512;" xml:space="preserve">
<g>
	<g>
		<path d="M473.3,277.9c-1.9,0-3.5,1.5-3.5,3.5v190H48.4v-190c0-1.9-1.5-3.5-3.5-3.5s-3.5,1.5-3.5,3.5v193.5c0,1.9,1.5,3.5,3.5,3.5
			h428.4c1.9,0,3.5-1.5,3.5-3.5V281.3C476.8,279.4,475.2,277.9,473.3,277.9z"/>
	</g>
</g>
<g>
	<g>
		<path d="M473.3,36H307.5c-1.9,0-3.5,1.5-3.5,3.5s1.5,3.5,3.5,3.5h162.4v124.4c0,1.9,1.5,3.5,3.5,3.5s3.5-1.5,3.5-3.5V39.5
			C476.8,37.5,475.2,36,473.3,36z"/>
	</g>
</g>
<g>
	<g>
		<path d="M141.7,36H44.9c-1.9,0-3.5,1.5-3.5,3.5v127.8c0,1.9,1.5,3.5,3.5,3.5s3.5-1.5,3.5-3.5V42.9h93.3c1.9,0,3.5-1.5,3.5-3.5
			S143.6,36,141.7,36z"/>
	</g>
</g>
<g>
	<g>
		<path d="M476.8,264H41.5c-1.9,0-3.5,1.5-3.5,3.5v13.8c0,1.9,1.5,3.5,3.5,3.5h435.3c1.9,0,3.5-1.5,3.5-3.5v-13.8
			C480.3,265.6,478.7,264,476.8,264z M473.3,277.9H44.9v-6.9h428.4V277.9z"/>
	</g>
</g>
<g>
	<g>
		<path d="M141.7,277.9c-1.9,0-3.5,1.5-3.5,3.5v190c0,1.9,1.5,3.5,3.5,3.5s3.5-1.5,3.5-3.5v-190
			C145.1,279.4,143.6,277.9,141.7,277.9z"/>
	</g>
</g>
<g>
	<g>
		<path d="M141.7,36c-1.9,0-3.5,1.5-3.5,3.5v127.8c0,1.9,1.5,3.5,3.5,3.5s3.5-1.5,3.5-3.5V39.5C145.1,37.5,143.6,36,141.7,36z"/>
	</g>
</g>
<g>
	<g>
		<path d="M307.5,277.9c-1.9,0-3.5,1.5-3.5,3.5v193.5c0,1.9,1.5,3.5,3.5,3.5s3.5-1.5,3.5-3.5V281.3
			C311,279.4,309.4,277.9,307.5,277.9z"/>
	</g>
</g>
<g>
	<g>
		<path d="M390.4,277.9c-1.9,0-3.5,1.5-3.5,3.5V461c0,1.9,1.5,3.5,3.5,3.5s3.5-1.5,3.5-3.5V281.3
			C393.9,279.4,392.3,277.9,390.4,277.9z"/>
	</g>
</g>
<g>
	<g>
		<path d="M307.5,36c-1.9,0-3.5,1.5-3.5,3.5v127.8c0,1.9,1.5,3.5,3.5,3.5s3.5-1.5,3.5-3.5V39.5C311,37.5,309.4,36,307.5,36z"/>
	</g>
</g>
<g>
	<g>
		<path d="M390.4,36c-1.9,0-3.5,1.5-3.5,3.5v114c0,1.9,1.5,3.5,3.5,3.5s3.5-1.5,3.5-3.5v-114C393.9,37.5,392.3,36,390.4,36z"/>
	</g>
</g>
<g>
	<g>
		<path d="M307.5,416.1H141.7c-1.9,0-3.5,1.5-3.5,3.5s1.5,3.5,3.5,3.5h165.8c1.9,0,3.5-1.5,3.5-3.5S309.4,416.1,307.5,416.1z"/>
	</g>
</g>
<g>
	<g>
		<path d="M127.8,336.6H44.9c-1.9,0-3.5,1.5-3.5,3.5s1.5,3.5,3.5,3.5h82.9c1.9,0,3.5-1.5,3.5-3.5S129.7,336.6,127.8,336.6z"/>
	</g>
</g>
<g>
	<g>
		<path d="M307.5,315.9H141.7c-1.9,0-3.5,1.5-3.5,3.5s1.5,3.5,3.5,3.5h165.8c1.9,0,3.5-1.5,3.5-3.5S309.4,315.9,307.5,315.9z"/>
	</g>
</g>
<g>
	<g>
		<path d="M272.9,329.7h-96.7c-1.9,0-3.5,1.5-3.5,3.5s1.5,3.5,3.5,3.5h96.7c1.9,0,3.5-1.5,3.5-3.5S274.9,329.7,272.9,329.7z"/>
	</g>
</g>
<g>
	<g>
		<path d="M107.1,295.1H79.5c-1.9,0-3.5,1.5-3.5,3.5s1.5,3.5,3.5,3.5h27.6c1.9,0,3.5-1.5,3.5-3.5S109,295.1,107.1,295.1z"/>
	</g>
</g>
<g>
	<g>
		<path d="M473.3,163.8H44.9c-1.9,0-3.5,1.5-3.5,3.5s1.5,3.5,3.5,3.5h428.4c1.9,0,3.5-1.5,3.5-3.5S475.2,163.8,473.3,163.8z"/>
	</g>
</g>
<g>
	<g>
		<path d="M255.7,36h-62.2c-1.9,0-3.5,1.5-3.5,3.5v82.9c0,1.9,1.5,3.5,3.5,3.5h62.2c1.9,0,3.5-1.5,3.5-3.5V39.5
			C259.1,37.5,257.6,36,255.7,36z M252.2,118.9h-55.3v-76h55.3V118.9z"/>
	</g>
</g>
<g>
	<g>
		<path d="M196.1,120.1c-1.3-1.4-3.4-1.6-4.9-0.3l-51.8,44.9c-1.4,1.3-1.6,3.4-0.3,4.9c0.7,0.8,1.6,1.2,2.6,1.2
			c0.8,0,1.6-0.3,2.3-0.8l51.8-44.9C197.2,123.7,197.3,121.6,196.1,120.1z"/>
	</g>
</g>
<g>
	<g>
		<path d="M309.8,164.7l-51.8-44.9c-1.4-1.2-3.6-1.1-4.9,0.3c-1.2,1.4-1.1,3.6,0.3,4.9l51.8,44.9c0.7,0.6,1.5,0.8,2.3,0.8
			c1,0,1.9-0.4,2.6-1.2C311.4,168.1,311.2,165.9,309.8,164.7z"/>
	</g>
</g>
<g>
	<g>
		<path d="M55.3,167.3c-1.9,0-3.5,1.5-3.5,3.5v96.7c0,1.9,1.5,3.5,3.5,3.5s3.5-1.5,3.5-3.5v-96.7C58.7,168.8,57.2,167.3,55.3,167.3z
			"/>
	</g>
</g>
<g>
	<g>
		<path d="M463,167.3c-1.9,0-3.5,1.5-3.5,3.5v96.7c0,1.9,1.5,3.5,3.5,3.5s3.5-1.5,3.5-3.5v-96.7C466.4,168.8,464.9,167.3,463,167.3z
			"/>
	</g>
</g>
<g>
	<g>
		<path d="M124.4,357.3c-1.9,0-3.5,1.5-3.5,3.5v27.6c0,1.9,1.5,3.5,3.5,3.5s3.5-1.5,3.5-3.5v-27.6
			C127.8,358.9,126.3,357.3,124.4,357.3z"/>
	</g>
</g>
<g>
	<g>
		<path d="M124.4,118.9c-1.9,0-3.5,1.5-3.5,3.5V150c0,1.9,1.5,3.5,3.5,3.5s3.5-1.5,3.5-3.5v-27.6
			C127.8,120.5,126.3,118.9,124.4,118.9z"/>
	</g>
</g>
<g>
	<g>
		<path d="M373.1,295.1c-1.9,0-3.5,1.5-3.5,3.5v27.6c0,1.9,1.5,3.5,3.5,3.5s3.5-1.5,3.5-3.5v-27.6
			C376.6,296.7,375,295.1,373.1,295.1z"/>
	</g>
</g>
<g>
	<g>
		<path d="M407.7,295.1c-1.9,0-3.5,1.5-3.5,3.5v27.6c0,1.9,1.5,3.5,3.5,3.5s3.5-1.5,3.5-3.5v-27.6
			C411.1,296.7,409.6,295.1,407.7,295.1z"/>
	</g>
</g>
<g>
	<g>
		<path d="M373.1,118.9c-1.9,0-3.5,1.5-3.5,3.5V150c0,1.9,1.5,3.5,3.5,3.5s3.5-1.5,3.5-3.5v-27.6C376.6,120.5,375,118.9,373.1,118.9
			z"/>
	</g>
</g>
<g>
	<g>
		<path d="M407.7,118.9c-1.9,0-3.5,1.5-3.5,3.5V150c0,1.9,1.5,3.5,3.5,3.5s3.5-1.5,3.5-3.5v-27.6
			C411.1,120.5,409.6,118.9,407.7,118.9z"/>
	</g>
</g>
<g>
	<g>
		<path d="M193.5,46.4h-51.8c-1.9,0-3.5,1.5-3.5,3.5s1.5,3.5,3.5,3.5h51.8c1.9,0,3.5-1.5,3.5-3.5S195.4,46.4,193.5,46.4z"/>
	</g>
</g>
<g>
	<g>
		<path d="M307.5,46.4h-51.8c-1.9,0-3.5,1.5-3.5,3.5s1.5,3.5,3.5,3.5h51.8c1.9,0,3.5-1.5,3.5-3.5S309.4,46.4,307.5,46.4z"/>
	</g>
</g>
<g>
	<g>
		<path d="M272.9,347h-96.7c-1.9,0-3.5,1.5-3.5,3.5v48.4c0,1.9,1.5,3.5,3.5,3.5h96.7c1.9,0,3.5-1.5,3.5-3.5v-48.4
			C276.4,348.5,274.9,347,272.9,347z M269.5,395.3h-89.8v-41.5h89.8V395.3z"/>
	</g>
</g>
<g>
	<g>
		<path d="M188.3,291.7c-4.8,0-8.6,3.9-8.6,8.6s3.9,8.6,8.6,8.6s8.6-3.9,8.6-8.6S193.1,291.7,188.3,291.7z M188.3,302
			c-1,0-1.7-0.8-1.7-1.7s0.8-1.7,1.7-1.7s1.7,0.8,1.7,1.7S189.2,302,188.3,302z"/>
	</g>
</g>
<g>
	<g>
		<path d="M260.9,291.7c-4.8,0-8.6,3.9-8.6,8.6s3.9,8.6,8.6,8.6s8.6-3.9,8.6-8.6S265.6,291.7,260.9,291.7z M260.9,302
			c-1,0-1.7-0.8-1.7-1.7s0.8-1.7,1.7-1.7s1.7,0.8,1.7,1.7S261.8,302,260.9,302z"/>
	</g>
</g>
<g>
	<g>
		<g>
			<path d="M428.4,56.7h-13.8c-1.9,0-3.5,1.5-3.5,3.5s1.5,3.5,3.5,3.5h13.8c1.9,0,3.5-1.5,3.5-3.5S430.3,56.7,428.4,56.7z"/>
			<path d="M456.1,56.7h-13.8c-1.9,0-3.5,1.5-3.5,3.5s1.5,3.5,3.5,3.5h10.4v44.9c0,1.9,1.5,3.5,3.5,3.5s3.5-1.5,3.5-3.5V60.2
				C459.5,58.3,458,56.7,456.1,56.7z"/>
		</g>
	</g>
</g>
<g>
	<g>
		<path d="M62.2,419.5c-1.9,0-3.5,1.5-3.5,3.5v34.6c0,1.9,1.5,3.5,3.5,3.5s3.5-1.5,3.5-3.5V423C65.6,421.1,64.1,419.5,62.2,419.5z"
			/>
	</g>
</g>
<g>
	<g>
		<path d="M62.2,391.9c-1.9,0-3.5,1.5-3.5,3.5v10.4c0,1.9,1.5,3.5,3.5,3.5s3.5-1.5,3.5-3.5v-10.4C65.6,393.4,64.1,391.9,62.2,391.9z
			"/>
	</g>
</g>
</svg>
