<?xml version="1.0" encoding="utf-8"?>
<!-- Generator: Adobe Illustrator 24.0.0, SVG Export Plug-In . SVG Version: 6.00 Build 0)  -->
<svg version="1.1" id="Layer_1" xmlns="http://www.w3.org/2000/svg" xmlns:xlink="http://www.w3.org/1999/xlink" x="0px" y="0px"
	 viewBox="0 0 512 512" style="enable-background:new 0 0 512 512;" xml:space="preserve">
<g>
	<g>
		<path d="M467.2,393.5H45.9c-2,0-3.6,1.6-3.6,3.6c0,2,1.6,3.6,3.6,3.6h421.4c2,0,3.6-1.6,3.6-3.6
			C470.8,395.1,469.2,393.5,467.2,393.5z"/>
	</g>
</g>
<g>
	<g>
		<path d="M467.2,332.8H270.8c-2,0-3.6,1.6-3.6,3.6c0,2,1.6,3.6,3.6,3.6h196.4c2,0,3.6-1.6,3.6-3.6
			C470.8,334.4,469.2,332.8,467.2,332.8z"/>
	</g>
</g>
<g>
	<g>
		<path d="M256.5,332.8H45.9c-2,0-3.6,1.6-3.6,3.6c0,2,1.6,3.6,3.6,3.6h210.7c2,0,3.6-1.6,3.6-3.6
			C260.1,334.4,258.5,332.8,256.5,332.8z"/>
	</g>
</g>
<g>
	<g>
		<path d="M170.8,361.4h-39.3c-2,0-3.6,1.6-3.6,3.6s1.6,3.6,3.6,3.6h39.3c2,0,3.6-1.6,3.6-3.6S172.8,361.4,170.8,361.4z"/>
	</g>
</g>
<g>
	<g>
		<path d="M381.5,361.4h-39.3c-2,0-3.6,1.6-3.6,3.6s1.6,3.6,3.6,3.6h39.3c2,0,3.6-1.6,3.6-3.6S383.5,361.4,381.5,361.4z"/>
	</g>
</g>
<g>
	<g>
		<path d="M256.5,286.4c-2,0-3.6,1.6-3.6,3.6v107.1c0,2,1.6,3.6,3.6,3.6c2,0,3.6-1.6,3.6-3.6V290C260.1,288,258.5,286.4,256.5,286.4
			z"/>
	</g>
</g>
<g>
	<g>
		<path d="M467.2,272.1H45.9c-9.8,0-17.9,8-17.9,17.9v132.1c0,2,1.6,3.6,3.6,3.6h14.3c2,0,3.6-1.6,3.6-3.6V293.5h414.2v128.5
			c0,2,1.6,3.6,3.6,3.6h14.3c2,0,3.6-1.6,3.6-3.6V290C485.1,280.1,477.1,272.1,467.2,272.1z M477.9,418.5h-7.1V290
			c0-2-1.6-3.6-3.6-3.6H45.9c-2,0-3.6,1.6-3.6,3.6v128.5h-7.1V290c0-5.9,4.8-10.7,10.7-10.7h421.4c5.9,0,10.7,4.8,10.7,10.7V418.5z"
			/>
	</g>
</g>
<g>
	<g>
		<path d="M406.5,90H106.6c-5.9,0-10.7,4.8-10.7,10.7v142.8c0,5.9,4.8,10.7,10.7,10.7h299.9c5.9,0,10.7-4.8,10.7-10.7V100.7
			C417.2,94.8,412.4,90,406.5,90z M410.1,243.5c0,2-1.6,3.6-3.6,3.6H106.6c-2,0-3.6-1.6-3.6-3.6V100.7c0-2,1.6-3.6,3.6-3.6h299.9
			c2,0,3.6,1.6,3.6,3.6V243.5z"/>
	</g>
</g>
<g>
	<g>
		<path d="M399.4,104.3H113.7c-2,0-3.6,1.6-3.6,3.6v128.5c0,2,1.6,3.6,3.6,3.6h285.7c2,0,3.6-1.6,3.6-3.6V107.9
			C402.9,105.9,401.3,104.3,399.4,104.3z M395.8,232.8H117.3V111.4h278.5V232.8z"/>
	</g>
</g>
<g>
	<g>
		<path d="M228,250.7c-2,0-3.6,1.6-3.6,3.6v21.4c0,2,1.6,3.6,3.6,3.6s3.6-1.6,3.6-3.6v-21.4C231.5,252.3,229.9,250.7,228,250.7z"/>
	</g>
</g>
<g>
	<g>
		<path d="M285.1,250.7c-2,0-3.6,1.6-3.6,3.6v21.4c0,2,1.6,3.6,3.6,3.6c2,0,3.6-1.6,3.6-3.6v-21.4
			C288.7,252.3,287.1,250.7,285.1,250.7z"/>
	</g>
</g>
<g>
	<g>
		<path d="M241.2,141l-34.8-34.8c-1.4-1.4-3.7-1.4-5,0c-1.4,1.4-1.4,3.7,0,5l34.8,34.8c0.7,0.7,1.6,1,2.5,1c0.9,0,1.8-0.3,2.5-1
			C242.6,144.6,242.6,142.4,241.2,141z"/>
	</g>
</g>
<g>
	<g>
		<path d="M294.8,194.5l-35.7-35.7c-1.4-1.4-3.7-1.4-5,0c-1.4,1.4-1.4,3.7,0,5l35.7,35.7c0.7,0.7,1.6,1,2.5,1s1.8-0.3,2.5-1
			C296.2,198.2,296.2,195.9,294.8,194.5z"/>
	</g>
</g>
<g>
	<g>
		<path d="M295,233.9l-71.7-71.7c-1.4-1.4-3.7-1.4-5,0s-1.4,3.7,0,5l71.7,71.7c0.7,0.7,1.6,1,2.5,1c0.9,0,1.8-0.3,2.5-1
			C296.4,237.5,296.4,235.3,295,233.9z"/>
	</g>
</g>
</svg>
