<?xml version="1.0" encoding="utf-8"?>
<!-- Generator: Adobe Illustrator 24.0.0, SVG Export Plug-In . SVG Version: 6.00 Build 0)  -->
<svg version="1.1" id="Layer_1" xmlns="http://www.w3.org/2000/svg" xmlns:xlink="http://www.w3.org/1999/xlink" x="0px" y="0px"
	 viewBox="0 0 64 64" style="enable-background:new 0 0 64 64;" xml:space="preserve">
<style type="text/css">
	.st0{fill:#010101;}
</style>
<path class="st0" d="M58.2,4H5.2C4.7,4,4.3,4.4,4.3,4.8v47.9c0,0.5,0.4,0.8,0.8,0.8h0.9v4.9c0,0.5,0.4,0.8,0.8,0.8h4.9
	c0.4,0,0.7-0.2,0.8-0.6l1.5-5.1h35.2l1.5,5.1c0.1,0.4,0.4,0.6,0.8,0.6h4.9c0.5,0,0.8-0.4,0.8-0.8v-4.9h0.9c0.5,0,0.8-0.4,0.8-0.8
	V4.8C59.1,4.4,58.7,4,58.2,4z M6,21.8h51.4v14H6V21.8z M57.4,5.7v14.5H6V5.7H57.4z M11.2,57.6H7.7v-4h4.6L11.2,57.6z M55.7,57.6
	h-3.4l-1.2-4h4.6C55.7,53.6,55.7,57.6,55.7,57.6z M56.5,51.9h-6.6H13.5H6.9H6V37.5h51.4v14.5C57.4,51.9,56.5,51.9,56.5,51.9z"/>
<path class="st0" d="M31.7,18.4c2.8,0,5.1-2.3,5.1-5.1s-2.3-5.1-5.1-5.1s-5.1,2.3-5.1,5.1C26.6,16.2,28.9,18.4,31.7,18.4z M31.7,9.9
	c1.9,0,3.4,1.5,3.4,3.4c0,1.9-1.5,3.4-3.4,3.4s-3.4-1.5-3.4-3.4S29.8,9.9,31.7,9.9z M31.7,23.7c-2.8,0-5.1,2.3-5.1,5.1
	s2.3,5.1,5.1,5.1s5.1-2.3,5.1-5.1S34.5,23.7,31.7,23.7z M31.7,32.2c-1.9,0-3.4-1.5-3.4-3.4s1.5-3.4,3.4-3.4c1.9,0,3.4,1.5,3.4,3.4
	S33.6,32.2,31.7,32.2z M31.7,39.2c-2.8,0-5.1,2.3-5.1,5.1c0,2.8,2.3,5.1,5.1,5.1s5.1-2.3,5.1-5.1C36.8,41.5,34.5,39.2,31.7,39.2z
	 M31.7,47.7c-1.9,0-3.4-1.5-3.4-3.4c0-1.9,1.5-3.4,3.4-3.4c1.9,0,3.4,1.5,3.4,3.4C35.1,46.1,33.6,47.7,31.7,47.7z"/>
</svg>
