<?xml version="1.0" encoding="utf-8"?>
<!-- Generator: Adobe Illustrator 24.0.0, SVG Export Plug-In . SVG Version: 6.00 Build 0)  -->
<svg version="1.1" id="Layer_1" xmlns="http://www.w3.org/2000/svg" xmlns:xlink="http://www.w3.org/1999/xlink" x="0px" y="0px"
	 viewBox="0 0 64 64" style="enable-background:new 0 0 64 64;" xml:space="preserve">
<style type="text/css">
	.st0{fill:#010101;}
</style>
<path class="st0" d="M35.7,30.8l-0.6-10.3c0-0.5-0.4-0.8-0.9-0.8H33V4.3c0-0.5-0.4-0.9-0.9-0.9c-0.5,0-0.9,0.4-0.9,0.9v15.5H30
	c-0.5,0-0.8,0.4-0.9,0.8l-0.6,10.3c-5.7,1.5-10,6.6-11.3,12.9c0,0.1-0.1,0.2-0.1,0.3c0,0,0,0,0,0c-0.2,1.2-0.4,2.4-0.4,3.7
	c0,0.5,0.4,0.9,0.9,0.9h8.5c0.5,3,3,5.2,6,5.2c3,0,5.5-2.2,6-5.2h8.4c0.5,0,0.9-0.4,0.9-0.9C47.4,39.7,42.5,32.7,35.7,30.8z
	 M29.3,32.4C29.3,32.4,29.3,32.4,29.3,32.4c0,0,0.1,0,0.1,0c0.5,0,0.8-0.4,0.9-0.8l0.6-10.2h2.6L34,31.6c0,0.5,0.4,0.8,0.9,0.8h0
	c0,0,0.1,0,0.1,0c4.9,1.2,8.7,5.4,10.1,10.8h-26C20.6,37.8,24.4,33.6,29.3,32.4z M32.2,52.1c-2.1,0-3.8-1.5-4.3-3.5h8.5
	C36,50.6,34.3,52.1,32.2,52.1z M18.6,46.9c0-0.7,0.1-1.3,0.2-2h26.7c0.1,0.7,0.2,1.3,0.2,2H18.6z M27.3,54.4L24.1,57
	c-0.4,0.3-0.4,0.8-0.1,1.2c0.2,0.2,0.4,0.3,0.7,0.3c0.2,0,0.4-0.1,0.5-0.2l3.2-2.6c0.4-0.3,0.4-0.8,0.1-1.2
	C28.2,54.2,27.7,54.2,27.3,54.4z M32.5,54.9c-0.5,0-0.9,0.4-0.8,0.9l0.1,3.6c0,0.5,0.4,0.8,0.9,0.8c0,0,0,0,0,0
	c0.5,0,0.9-0.4,0.8-0.9l-0.1-3.6C33.4,55.3,32.9,54.9,32.5,54.9z M37.6,54.2c-0.4-0.3-0.9-0.2-1.2,0.2c-0.3,0.4-0.2,0.9,0.2,1.2
	l3.3,2.5c0.2,0.1,0.3,0.2,0.5,0.2c0.3,0,0.5-0.1,0.7-0.3c0.3-0.4,0.2-0.9-0.2-1.2L37.6,54.2z"/>
</svg>
