<svg xmlns="http://www.w3.org/2000/svg" enable-background="new 0 0 64 64" viewBox="0 0 64 64"><rect width="2" height="2" x="34" y="4" fill="#231f20"/><path fill="#231f20" d="M25,32h14c2.7,0,5-2.2,5-4.9l2-17.9L46,9c0-2.8-2.2-5-5-5h-3v2h3c1.6,0,3,1.3,3,2.9l-2,17.9l0,0.1c0,1.7-1.3,3-3,3H25c-1.7,0-3-1.3-3-3L20,8.9C20,7.3,21.4,6,23,6h9V4h-9c-2.8,0-5,2.2-5,5l2,18.1C20,29.8,22.3,32,25,32z"/><path fill="#231f20" d="M52.5,22h-3c-1.9,0-3.5,1.6-3.5,3.5s1.6,3.5,3.5,3.5H50v7c0,0.3-0.1,2-2,2h-2.1c-0.3-2.2-2.1-4-4.4-4h-19c-2.3,0-4.2,1.8-4.4,4H16c-1.8,0-2-1.5-2-2v-7h0.5c1.9,0,3.5-1.6,3.5-3.5S16.4,22,14.5,22h-3C9.6,22,8,23.6,8,25.5S9.6,29,11.5,29H12v7c0,1.6,1.1,4,4,4h2.3c0.6,1.7,2.3,3,4.2,3H28c0,1.9,1.3,3.4,3,3.9V55h-6c-2.8,0-5,2.2-5,5h2c0-1.7,1.3-3,3-3h6v3h2v-3h6c1.7,0,3,1.3,3,3h2c0-2.8-2.2-5-5-5h-6v-8.1c1.7-0.4,3-2,3-3.9h5.5c2,0,3.6-1.3,4.2-3H48c2.9,0,4-2.4,4-4v-7h0.5c1.9,0,3.5-1.6,3.5-3.5S54.4,22,52.5,22z M11.5,27c-0.8,0-1.5-0.7-1.5-1.5s0.7-1.5,1.5-1.5h3c0.8,0,1.5,0.7,1.5,1.5S15.3,27,14.5,27H11.5z M32,45c-1.1,0-2-0.9-2-2h4C34,44.1,33.1,45,32,45z M41.5,41h-19c-1.4,0-2.5-1.1-2.5-2.5s1.1-2.5,2.5-2.5h19c1.4,0,2.5,1.1,2.5,2.5S42.9,41,41.5,41z M52.5,27h-3c-0.8,0-1.5-0.7-1.5-1.5s0.7-1.5,1.5-1.5h3c0.8,0,1.5,0.7,1.5,1.5S53.3,27,52.5,27z"/></svg>