<?xml version="1.0" encoding="utf-8"?>
<!-- Generator: Adobe Illustrator 24.0.0, SVG Export Plug-In . SVG Version: 6.00 Build 0)  -->
<svg version="1.1" id="Layer_1" xmlns="http://www.w3.org/2000/svg" xmlns:xlink="http://www.w3.org/1999/xlink" x="0px" y="0px"
	 viewBox="0 0 512 512" style="enable-background:new 0 0 512 512;" xml:space="preserve">
<g>
	<g>
		<path d="M348,356.7H171.8c-2,0-3.6,1.6-3.6,3.6s1.6,3.6,3.6,3.6H348c2,0,3.6-1.6,3.6-3.6S350,356.7,348,356.7z"/>
	</g>
</g>
<g>
	<g>
		<path d="M340.8,378.3H175.4c-2,0-3.6,1.6-3.6,3.6c0,2,1.6,3.6,3.6,3.6h165.3c2,0,3.6-1.6,3.6-3.6
			C344.4,379.9,342.8,378.3,340.8,378.3z"/>
	</g>
</g>
<g>
	<g>
		<path d="M247.3,105.1c-2,0-3.6,1.6-3.6,3.6v226.5h-82.7c-2,0-3.6,1.6-3.6,3.6s1.6,3.6,3.6,3.6h86.3c2,0,3.6-1.6,3.6-3.6V108.7
			C250.9,106.7,249.3,105.1,247.3,105.1z"/>
	</g>
</g>
<g>
	<g>
		<path d="M355.2,335.1h-82.7V108.7c0-2-1.6-3.6-3.6-3.6c-2,0-3.6,1.6-3.6,3.6v230.1c0,2,1.6,3.6,3.6,3.6h86.3c2,0,3.6-1.6,3.6-3.6
			S357.1,335.1,355.2,335.1z"/>
	</g>
</g>
<g>
	<g>
		<path d="M130.8,288.6c21.3-17.1,130.9-112.2,130.9-259c0-2-1.6-3.6-3.6-3.6H67.6c-2,0-3.6,1.6-3.6,3.6v452.9c0,2,1.6,3.6,3.6,3.6
			h118.6c2,0,3.6-1.6,3.6-3.6C189.8,476.7,189.1,341.6,130.8,288.6z M71.2,478.9V33.2h183.3C252.5,189,124.3,284.5,123,285.5
			c-0.9,0.7-1.4,1.7-1.5,2.8c0,1.1,0.5,2.2,1.3,2.9c53.8,44.3,59.2,165.3,59.7,187.7H71.2z"/>
	</g>
</g>
<g>
	<g>
		<path d="M125.1,284.8H71.2c-2,0-3.6,1.6-3.6,3.6s1.6,3.6,3.6,3.6h53.9c2,0,3.6-1.6,3.6-3.6S127.1,284.8,125.1,284.8z"/>
	</g>
</g>
<g>
	<g>
		<path d="M204.2,26c-2,0-3.6,1.6-3.6,3.6c0,47.7-8.4,94.5-24.9,138.9c-0.7,1.9,0.3,3.9,2.1,4.6c0.4,0.2,0.8,0.2,1.3,0.2
			c1.5,0,2.8-0.9,3.4-2.3c16.9-45.3,25.4-92.9,25.4-141.4C207.8,27.6,206.2,26,204.2,26z"/>
	</g>
</g>
<g>
	<g>
		<path d="M173.3,184.5c-1.8-0.8-3.9,0.1-4.7,1.9c-27,63.2-61.9,99.2-62.3,99.5c-1.3,1.3-1.4,3.5-0.1,4.9
			c17.3,19.9,30.3,59,37.4,113.1c0.2,1.8,1.8,3.1,3.6,3.1c0.2,0,0.3,0,0.5,0c2-0.3,3.4-2.1,3.1-4c-7.1-54.1-19.5-92.6-37-114.4
			c8.3-9.1,37.6-43.4,61.5-99.4C175.9,187.3,175.1,185.2,173.3,184.5z"/>
	</g>
</g>
<g>
	<g>
		<path d="M153.7,430.8c-0.2-2-1.9-3.5-3.9-3.3c-2,0.2-3.4,1.9-3.3,3.9c2.5,28.6,2.5,49.8,2.5,50c0,2,1.6,3.6,3.6,3.6
			s3.6-1.6,3.6-3.6C156.2,481.3,156.2,459.7,153.7,430.8z"/>
	</g>
</g>
<g>
	<g>
		<path d="M135.9,26c-2,0-3.6,1.6-3.6,3.6c0,14.3-0.4,28.8-1.1,43c-0.1,2,1.4,3.7,3.4,3.8c0.1,0,0.1,0,0.2,0c1.9,0,3.5-1.5,3.6-3.4
			c0.8-14.3,1.2-28.9,1.2-43.3C139.5,27.6,137.9,26,135.9,26z"/>
	</g>
</g>
<g>
	<g>
		<path d="M135.6,109c0.2-2-1.2-3.7-3.2-3.9c-2-0.2-3.7,1.2-3.9,3.2C117.2,220,85.3,286.2,85,286.8c-0.5,0.9-0.5,2-0.1,3
			c21.4,49.1,21.6,191.2,21.6,192.7c0,2,1.6,3.6,3.6,3.6c2,0,3.6-1.6,3.6-3.6c0-5.8-0.2-142.4-21.6-194
			C97,277.9,125.2,212.8,135.6,109z"/>
	</g>
</g>
<g>
	<g>
		<path d="M448.6,26H258.1c-2,0-3.6,1.6-3.6,3.6c0,146.8,109.7,241.9,130.9,259c-58.4,53.1-59,188.1-59,194c0,2,1.6,3.6,3.6,3.6
			h118.6c2,0,3.6-1.6,3.6-3.6V29.6C452.2,27.6,450.6,26,448.6,26z M445,478.9H333.6c0.5-22.4,5.9-143.4,59.7-187.7
			c0.9-0.7,1.3-1.8,1.3-2.9c0-1.1-0.6-2.1-1.5-2.8c-1.3-1-129.5-96.5-131.5-252.3H445V478.9z"/>
	</g>
</g>
<g>
	<g>
		<path d="M445,284.8h-53.9c-2,0-3.6,1.6-3.6,3.6s1.6,3.6,3.6,3.6H445c2,0,3.6-1.6,3.6-3.6S447,284.8,445,284.8z"/>
	</g>
</g>
<g>
	<g>
		<path d="M340.6,168.5C324,124,315.6,77.3,315.6,29.6c0-2-1.6-3.6-3.6-3.6c-2,0-3.6,1.6-3.6,3.6c0,48.6,8.5,96.2,25.4,141.4
			c0.5,1.4,1.9,2.3,3.4,2.3c0.4,0,0.8-0.1,1.3-0.2C340.3,172.5,341.3,170.4,340.6,168.5z"/>
	</g>
</g>
<g>
	<g>
		<path d="M409.9,285.9c-0.3-0.4-35.2-36.2-62.3-99.5c-0.8-1.8-2.9-2.7-4.7-1.9s-2.7,2.9-1.9,4.7c24,56,53.2,90.3,61.5,99.4
			c-17.4,21.8-29.9,60.3-37,114.4c-0.3,2,1.1,3.8,3.1,4c0.2,0,0.3,0,0.5,0c1.8,0,3.3-1.3,3.6-3.1c7.1-54.1,20-93.2,37.4-113.1
			C411.3,289.3,411.3,287.2,409.9,285.9z"/>
	</g>
</g>
<g>
	<g>
		<path d="M366.4,427.6c-2-0.2-3.7,1.3-3.9,3.3c-2.5,28.9-2.5,50.4-2.5,50.7c0,2,1.6,3.6,3.6,3.6c2,0,3.6-1.6,3.6-3.6
			c0-0.2,0-21.5,2.5-50C369.8,429.5,368.4,427.7,366.4,427.6z"/>
	</g>
</g>
<g>
	<g>
		<path d="M383.9,29.6c0-2-1.6-3.6-3.6-3.6c-2,0-3.6,1.6-3.6,3.6c0,14.5,0.4,29,1.1,43.3c0.1,1.9,1.7,3.4,3.6,3.4c0.1,0,0.1,0,0.2,0
			c2-0.1,3.5-1.8,3.4-3.8C384.3,58.4,383.9,43.9,383.9,29.6z"/>
	</g>
</g>
<g>
	<g>
		<path d="M431.2,286.8c-0.3-0.7-32.3-66.8-43.4-178.5c-0.2-2-2-3.4-3.9-3.2c-2,0.2-3.4,2-3.2,3.9c10.4,103.8,38.6,168.9,43.4,179.4
			c-21.3,51.6-21.6,188.2-21.6,194c0,2,1.6,3.6,3.6,3.6c2,0,3.6-1.6,3.6-3.6c0-1.4,0.2-143.6,21.6-192.7
			C431.7,288.9,431.7,287.8,431.2,286.8z"/>
	</g>
</g>
</svg>
