<?xml version="1.0" encoding="utf-8"?>
<!-- Generator: Adobe Illustrator 24.0.0, SVG Export Plug-In . SVG Version: 6.00 Build 0)  -->
<svg version="1.1" id="Layer_1" xmlns="http://www.w3.org/2000/svg" xmlns:xlink="http://www.w3.org/1999/xlink" x="0px" y="0px"
	 viewBox="0 0 298.1 298.1" style="enable-background:new 0 0 298.1 298.1;" xml:space="preserve">
<g>
	<g>
		<g>
			<path d="M182.4,217.5c-9.6-2.9-24.1-7.4-27.1-18.4c-1.2-4.1-1.2-33.1-0.8-52.7c18.3-0.2,35.3-1.2,48.5-2.7
				c24.6-2.8,24.6-6.5,24.6-8.2v-0.4v-10c0-0.1,0-0.1,0-0.2l0,0c0-1.8,0-5.3-24.6-8.2c-14.9-1.8-34.7-2.7-55.7-2.7
				c-21,0-40.8,1-55.7,2.7C67,119.5,67,123.1,67,124.9v10.6c0,1.8,0,5.3,24.6,8.2c13.2,1.5,30.2,2.5,48.5,2.7
				c0.3,19.6,0.3,48.6-0.8,52.7c-3.1,11-17.6,15.4-27.1,18.4c-6.7,2-10.5,3.2-10.5,6.1c0,0.3,0,1,0.4,1.7c0.4,0.8,0.9,1.1,0.9,1
				c4.2,3.1,26,4.5,44.4,4.5c18.5,0,40.3-1.4,44.3-4.4c0.7-0.4,1.4-1.3,1.4-2.7C192.9,220.7,189.1,219.5,182.4,217.5z M147.1,117.6
				c44.9,0,73,4.3,76.5,7.4c-0.1,0.1-0.2,0.2-0.3,0.2c-0.1,0.1-0.3,0.2-0.4,0.3c-0.2,0.1-0.4,0.2-0.7,0.4c-0.2,0.1-0.4,0.2-0.7,0.3
				s-0.6,0.3-1,0.4c-0.3,0.1-0.6,0.2-1,0.3c-0.4,0.1-0.9,0.3-1.3,0.4c-0.4,0.1-0.8,0.2-1.2,0.3c-0.5,0.1-1.1,0.3-1.7,0.4
				c-0.4,0.1-0.9,0.2-1.4,0.3c-0.6,0.1-1.3,0.3-2,0.4c-0.5,0.1-1.1,0.2-1.7,0.3c-0.7,0.1-1.5,0.2-2.2,0.4c-0.6,0.1-1.2,0.2-2,0.3
				c-0.8,0.1-1.7,0.2-2.5,0.4c-0.7,0.1-1.4,0.2-2.1,0.3c-0.9,0.1-1.9,0.2-2.8,0.3c-0.8,0.1-1.5,0.2-2.3,0.3c-1,0.1-2,0.2-3.1,0.3
				c-0.9,0.1-1.7,0.2-2.6,0.2c-1.1,0.1-2.2,0.2-3.4,0.3c-0.9,0.1-1.8,0.1-2.7,0.2c-1.2,0.1-2.5,0.2-3.6,0.2c-1,0.1-2,0.1-2.9,0.2
				c-1.3,0.1-2.7,0.1-4,0.2c-1.1,0-2,0.1-3.1,0.1c-1.5,0.1-3,0.1-4.6,0.2c-1,0-2,0.1-2.9,0.1c-1.9,0.1-3.7,0.1-5.6,0.1
				c-0.8,0-1.5,0-2.3,0c-2.7,0-5.5,0.1-8.3,0.1c-2.8,0-5.7,0-8.3-0.1c-1.1,0-2,0-3-0.1c-1.6,0-3.3-0.1-4.9-0.1
				c-1.5,0-2.9-0.1-4.3-0.1c-1.1,0-2-0.1-3.1-0.1c-2-0.1-3.9-0.2-5.9-0.3c-0.4,0-0.7,0-1.1-0.1c-27.1-1.3-43.5-4.3-46-6.7
				C73.9,121.9,102.1,117.6,147.1,117.6z M70.4,128.9c0.1,0.1,0.3,0.1,0.4,0.2c0.2,0.1,0.4,0.2,0.6,0.3c0.3,0.1,0.5,0.2,0.9,0.3
				c0.3,0.1,0.5,0.2,0.8,0.3c0.4,0.1,0.7,0.2,1.1,0.3c0.2,0,0.3,0.1,0.4,0.1l-4.2,5.1C70.4,135.3,70.4,128.9,70.4,128.9z
				 M72.1,136.4l4.7-5.6c0.3,0.1,0.4,0.1,0.7,0.2c0.5,0.1,1.1,0.2,1.6,0.4c0.4,0.1,0.7,0.2,1.1,0.2l-4.9,5.9
				C73.9,137.1,72.9,136.8,72.1,136.4z M77.4,137.9l5.1-6c0.4,0.1,0.7,0.1,1.1,0.2c0.8,0.1,1.7,0.3,2.5,0.4l-5.1,6.1
				C79.6,138.4,78.4,138.2,77.4,137.9z M83.1,139.1l5.2-6.2c1,0.1,2,0.3,3.1,0.4c0.2,0,0.4,0,0.5,0.1l-5.2,6.3
				C85.4,139.4,84.2,139.2,83.1,139.1z M89,139.9l5.3-6.4c14.5,1.5,33.1,2.4,52.8,2.4c21,0,40.8-1,55.7-2.7c1.5-0.2,2.9-0.4,4.3-0.5
				c0.4-0.1,0.9-0.1,1.3-0.2c0.8-0.1,1.7-0.3,2.4-0.4c0.4-0.1,0.9-0.2,1.3-0.3c0.6-0.1,1.3-0.2,2-0.4c0.4-0.1,0.8-0.2,1.2-0.3
				c0.5-0.1,1.1-0.2,1.6-0.4c0.4-0.1,0.7-0.2,1.1-0.3c0.4-0.1,0.9-0.2,1.2-0.3c0.4-0.1,0.6-0.2,1-0.3c0.4-0.1,0.7-0.2,1-0.3
				c0.3-0.1,0.5-0.2,0.8-0.3c0.3-0.1,0.5-0.2,0.8-0.3s0.4-0.2,0.7-0.3c0.1-0.1,0.3-0.1,0.4-0.2v6.5l0,0c-2.7,3.1-31,7.5-76.7,7.5
				C122.1,142.9,102.2,141.5,89,139.9z M147.1,227.2c-21.5,0-37.6-1.7-41.9-3.5c1.2-0.8,4.8-1.9,7.6-2.7c10.4-3.2,26-8,29.5-20.8
				c1.6-5.6,1.2-43.9,1-53.7h7.5c-0.2,9.8-0.6,48.1,1,53.7c3.6,12.9,19.2,17.7,29.5,20.8c2.9,0.9,6.5,2,7.7,2.8
				C185.5,225.5,169.1,227.2,147.1,227.2z"/>
			<path d="M89.4,159.7H35.8c-0.6,0-1.2,0.1-1.8,0.4c-0.4-7.3-0.9-14.5-1.3-21.7c0.3,0.1,0.5,0.2,0.8,0.2c0.1,0,0.2,0,0.2,0
				c2.5-0.1,4.4-2.2,4.3-4.7l-2.4-53.6c-0.1-2.5-2.2-4.4-4.7-4.3c-2.5,0.1-4.4,2.2-4.3,4.7v0.1c-0.4-0.1-4.8,0-6.5,0L16,80.7v154.9
				c0,0,6.7,0.2,9.1,0.2c4.2,0,4.3-3.2,4.4-4.3c0.7-8.6,0.9-27.6,1.1-40.2c0.1-4.1,0.1-7.7,0.1-9.8h43.9c0.3,2,0.6,5.8,1.1,9.8
				c1.3,12.3,3.4,31,4.6,40.7c0.1,1,1.1,3,2.7,3.3c1.2,0.2,2.4,0.2,3.5,0.1h2.9v-66.9c2.4-0.1,4.3-2,4.3-4.4
				C93.9,161.7,91.8,159.7,89.4,159.7z M31,78L31,78c1.4,0,2.5,1.1,2.6,2.4L36,134c0.1,1.3-1,2.5-2.4,2.6c-0.4,0-0.7-0.1-1-0.2
				c-0.4-6.8-4-55.7-4-55.7C28.5,79.2,29.6,78,31,78z M86,232c-0.7,0-1.3,0-2,0c-0.1-0.1-0.1-0.2-0.1-0.3
				c-1.2-9.8-3.3-28.4-4.6-40.7c-1.2-10.5-1.2-11.4-1.3-11.6l-0.4-1.4H27.4c0,0-0.7,44.8-1.4,53.2c0,0.5-0.1,0.7-0.1,0.8
				c-0.1,0-6.2,0-6.4,0V84.3H20c1.9,0,3.6,0.1,5.4,0c0.2,0,0.4,0,0.4,0c0,0.1,0.1,0.3,0.1,0.5c0.4,8,0.9,16.1,1.4,24l0.4,7.1
				c1,16.7,3.3,54.7,3.3,54.7H86V232z M89.4,166.6H35.8c-0.5,0-1-0.2-1.3-0.4c0-0.2-0.1-0.4-0.1-0.4c-0.1-1.2-0.2-2.3-0.2-3.4
				c0.4-0.4,1-0.6,1.6-0.6h53.6c1.3,0,2.5,1.2,2.5,2.5S90.7,166.6,89.4,166.6z"/>
			<path d="M276.3,80.8c-1.8,0-3.5,0.1-5.2,0c-0.5,0-0.9,0.1-1.3,0.2v-0.3c0.1-2.5-1.8-4.6-4.3-4.7c-2.6-0.2-4.6,1.8-4.7,4.3
				l-2.4,53.6c-0.1,2.5,1.8,4.6,4.3,4.7c0.1,0,0.2,0,0.2,0c0.3,0,0.5-0.1,0.8-0.2c-0.4,7.3-0.9,14.5-1.3,21.7
				c-0.5-0.3-1.2-0.4-1.8-0.4H207c-2.5,0-4.5,2-4.5,4.5c0,2.4,2,4.3,4.3,4.4v66.9h2.9c1.2,0,2.3,0.1,3.5-0.1
				c1.6-0.3,2.5-2.2,2.7-3.3c1.2-9.8,3.3-28.4,4.6-40.7c0.4-4.2,0.9-7.9,1.1-9.8h43.9c0.1,2,0.1,5.7,0.1,9.8
				c0.2,12.6,0.4,31.6,1.1,40.2c0.1,1.1,0.3,4.2,4.5,4.1c2.1,0,9,0,9,0v-155L276.3,80.8z M262.9,136.5L262.9,136.5
				c-1.4-0.1-2.5-1.2-2.5-2.6l2.4-53.6c0.1-1.3,1.1-2.4,2.6-2.4c1.3,0.1,2.4,1.2,2.4,2.6l-0.1,1.7c-0.4,0.6-3.5,47.2-3.9,54.1
				C263.6,136.4,263.3,136.5,262.9,136.5z M207.1,166.6c-1.3,0-2.5-1.2-2.5-2.5c0-1.3,1.2-2.5,2.5-2.5h53.6c0.6,0,1.2,0.3,1.6,0.6
				c-0.1,1.2-0.2,2.3-0.2,3.4c0,0.2-0.1,0.4-0.1,0.4c-0.4,0.3-0.8,0.4-1.3,0.4L207.1,166.6L207.1,166.6z M276.9,232
				c-0.2,0-5.9,0-6,0c-0.2,0-0.3,0-0.3,0c0-0.1-0.1-0.4-0.2-0.8c-0.7-8.4-0.9-27.4-1.1-39.9c-0.1-7.1-0.1-13.3-0.1-13.3h-50.5
				l-0.4,1.4c-0.1,0.3-0.2,1.2-1.3,11.6c-1.3,12.3-3.4,31-4.6,40.6c0,0.1-0.1,0.2-0.1,0.3c-0.6,0.1-1.2,0.1-2,0v-61.3h55.3
				c0,0,2-38.1,3-54.7l0.4-7.1c0.5-8,1-16.1,1.4-24c0-0.3,0-0.4,0-0.5c0.1,0,6.4,0,6.4,0L276.9,232L276.9,232z"/>
		</g>
	</g>
</g>
</svg>
