<?xml version="1.0" encoding="utf-8"?>
<!-- Generator: Adobe Illustrator 24.0.0, SVG Export Plug-In . SVG Version: 6.00 Build 0)  -->
<svg version="1.1" id="Layer_1" xmlns="http://www.w3.org/2000/svg" xmlns:xlink="http://www.w3.org/1999/xlink" x="0px" y="0px"
	 viewBox="0 0 309.9 309.9" style="enable-background:new 0 0 309.9 309.9;" xml:space="preserve">
<g>
	<g>
		<g>
			<path d="M147.8,162.3h-25.1c-1.5,0-2.8,1.2-2.8,2.8c0,1.5,1.2,2.8,2.8,2.8h25.1c1.5,0,2.8-1.2,2.8-2.8
				C150.6,163.5,149.3,162.3,147.8,162.3z"/>
			<path d="M280.4,146.5h-13.2V55.1c0-0.1,0-0.3,0-0.4c-3.5-15.1-17.1-25.9-32.7-25.4c-14.6,0.4-27.3,10.8-30.8,24.9h-13.6
				c-3.2,0-5.8,2.6-5.8,5.8s2.6,5.8,5.8,5.8h31.2c3.2,0,5.8-2.6,5.8-5.8s-2.6-5.8-5.8-5.8h-13.5c3.4-12,14.2-20.7,26.8-21
				c0.3,0,0.5,0,0.8,0c13.2,0,24.9,9.2,28,22.2v91.2H111.6v-2.9c0-1.1-0.9-1.9-1.9-1.9H58.5c-1.1,0-1.9,0.9-1.9,1.9v2.9h-30
				c-5.8,0-10.6,4.7-10.6,10.6c0,5.3,4,9.7,9.1,10.4v27.8c0,26.1,16.4,45.9,41.9,53.1l-11.6,11.6c-1.1,1.1-1.1,2.8,0,3.9
				c0.5,0.5,1.2,0.8,2,0.8c0.7,0,1.4-0.3,2-0.8L73,250.3c0.1-0.1,0.2-0.3,0.3-0.4c5,1,10.3,1.5,15.8,1.5h128.9
				c5.4,0,10.6-0.5,15.5-1.5l9.1,12.7c0.5,0.8,1.4,1.2,2.3,1.2c0.6,0,1.1-0.2,1.6-0.5c1.2-0.9,1.5-2.6,0.6-3.9l-7.7-10.8
				c25.8-7,42.6-27,42.6-53.3v-27.8c5.1-0.7,9.1-5.1,9.1-10.4C291,151.3,286.3,146.5,280.4,146.5z M221.4,58c1.1,0,2,0.9,2,2
				c0,1.1-0.9,2-2,2h-31.2c-1.1,0-2-0.9-2-2s0.9-2,2-2H221.4z M60.4,199.5h17.7c1.1,0,1.9-0.9,1.9-1.9s-0.9-1.9-1.9-1.9H60.4v-2.4
				h31.9c1.1,0,1.9-0.9,1.9-1.9c0-1.1-0.9-1.9-1.9-1.9H60.4V166c0.1-0.3,0.2-0.6,0.2-0.9c0,0,0-0.1,0-0.1c0,0,0-0.1,0-0.1
				c0-0.3-0.1-0.6-0.2-0.9v-13.9c0.1-0.3,0.2-0.6,0.2-0.9c0-0.3-0.1-0.6-0.2-0.9v-2.9h47.3v43.9H97.4c-1.1,0-1.9,0.9-1.9,1.9
				s0.9,1.9,1.9,1.9h10.4v2.4H86.2c-1.1,0-1.9,0.9-1.9,1.9c0,1.1,0.9,1.9,1.9,1.9h21.5v5.9H60.4V199.5z M21.5,157.1c0-2.8,2.3-5,5-5
				h30v10.1h-30C23.8,162.1,21.5,159.9,21.5,157.1z M280.4,162.1c-0.4,0-0.7,0.1-1.1,0.2c-0.1,0-0.1,0-0.2,0H163.4
				c-1.5,0-2.8,1.2-2.8,2.8c0,1.5,1.2,2.8,2.8,2.8h112.9v27.5c0,29.8-24,50.6-58.4,50.6H89.1c-34.4,0-58.4-20.8-58.4-50.6v-27.5
				h25.9v39.5c0,1.1,0.9,1.9,1.9,1.9h51.2c1.1,0,1.9-0.9,1.9-1.9v-15.2c0.1-0.3,0.2-0.5,0.2-0.9c0-0.3-0.1-0.6-0.2-0.9V152h168.8
				c2.8,0,5,2.3,5,5C285.5,159.9,283.2,162.1,280.4,162.1z"/>
			<path d="M221.3,238.7c3.2-0.1,6.3-0.6,9.4-1.5c2.4-0.7,1.4-4.4-1-3.8c-2.8,0.8-5.5,1.2-8.4,1.3
				C218.8,234.9,218.8,238.8,221.3,238.7z"/>
			<path d="M238.9,233.8c9.9-6,16.1-16.1,15.1-27.9c-0.2-2.5-4.1-2.5-3.9,0c0.9,10.5-4.4,19.1-13.2,24.5
				C234.8,231.7,236.8,235.1,238.9,233.8z"/>
			<path d="M190.7,138.1c0,0.8,0.6,1.4,1.4,1.4s1.4-0.6,1.4-1.4v-11.8c0-0.8-0.6-1.4-1.4-1.4s-1.4,0.6-1.4,1.4V138.1z"/>
			<path d="M190.7,115.2c0,0.8,0.6,1.4,1.4,1.4s1.4-0.6,1.4-1.4V93.1c0-0.8-0.6-1.4-1.4-1.4s-1.4,0.6-1.4,1.4V115.2z"/>
			<path d="M192.1,87.9c0.8,0,1.4-0.6,1.4-1.4V72.6c0-0.8-0.6-1.4-1.4-1.4s-1.4,0.6-1.4,1.4v13.9C190.7,87.3,191.3,87.9,192.1,87.9z
				"/>
			<path d="M202,84.4c0.8,0,1.4-0.6,1.4-1.4V72.2c0-0.8-0.6-1.4-1.4-1.4s-1.4,0.6-1.4,1.4V83C200.6,83.7,201.2,84.4,202,84.4z"/>
			<path d="M200.6,98.5c0,0.8,0.6,1.4,1.4,1.4s1.4-0.6,1.4-1.4v-9.1c0-0.8-0.6-1.4-1.4-1.4s-1.4,0.6-1.4,1.4V98.5z"/>
			<path d="M200.6,132.4c0,0.8,0.6,1.4,1.4,1.4s1.4-0.6,1.4-1.4v-24.1c0-0.8-0.6-1.4-1.4-1.4s-1.4,0.6-1.4,1.4V132.4z"/>
			<path d="M211.4,138.1c0,0.8,0.6,1.4,1.4,1.4s1.4-0.6,1.4-1.4v-11.8c0-0.8-0.6-1.4-1.4-1.4s-1.4,0.6-1.4,1.4V138.1z"/>
			<path d="M211.4,115.2c0,0.8,0.6,1.4,1.4,1.4s1.4-0.6,1.4-1.4V93.1c0-0.8-0.6-1.4-1.4-1.4s-1.4,0.6-1.4,1.4V115.2z"/>
			<path d="M212.8,87.9c0.8,0,1.4-0.6,1.4-1.4V72.6c0-0.8-0.6-1.4-1.4-1.4s-1.4,0.6-1.4,1.4v13.9C211.4,87.3,212,87.9,212.8,87.9z"
				/>
			<path d="M224,83V72.2c0-0.8-0.6-1.4-1.4-1.4s-1.4,0.6-1.4,1.4V83c0,0.8,0.6,1.4,1.4,1.4C223.4,84.4,224,83.7,224,83z"/>
			<path d="M221.3,98.5c0,0.8,0.6,1.4,1.4,1.4s1.4-0.6,1.4-1.4v-9.1c0-0.8-0.6-1.4-1.4-1.4s-1.4,0.6-1.4,1.4V98.5z"/>
			<path d="M221.3,132.4c0,0.8,0.6,1.4,1.4,1.4s1.4-0.6,1.4-1.4v-24.1c0-0.8-0.6-1.4-1.4-1.4s-1.4,0.6-1.4,1.4V132.4z"/>
		</g>
	</g>
</g>
</svg>
