<?xml version="1.0" encoding="utf-8"?>
<!-- Generator: Adobe Illustrator 24.0.0, SVG Export Plug-In . SVG Version: 6.00 Build 0)  -->
<svg version="1.1" id="Layer_1" xmlns="http://www.w3.org/2000/svg" xmlns:xlink="http://www.w3.org/1999/xlink" x="0px" y="0px"
	 viewBox="0 0 512 512" style="enable-background:new 0 0 512 512;" xml:space="preserve">
<path d="M386.2,158c-3.7-3.5-8.3-5.7-13.4-6.5c-7.7-1.2-13.5-7.9-13.5-15.7v-12.2c0-15.5-9.3-28.9-22.7-34.8
	c-6.9-38.1-40-66.7-79.7-66.7c-44.7,0-81.2,36.4-81.2,81.2v172.4c-7.5,5.3-12.4,14-12.4,23.8v172h-60.7c-2.6,0-4.8,2.1-4.8,4.8
	c0,2.6,2.1,4.8,4.8,4.8c101.1,0,79.3,0,179.7,0c2.6,0,4.8-2.1,4.8-4.8c0-2.6-2.1-4.8-4.8-4.8h-60.7v-172c0-9.8-4.9-18.6-12.4-23.8
	V103.2c0-26.4,21.4-47.8,47.8-47.8c21.6,0,40.2,14.7,45.9,34.8c-11.7,6.5-19.7,19-19.7,33.3v12.2c0,7.9-5.7,14.5-13.5,15.7
	c-4.5,0.7-8.7,2.6-12.3,5.6c-9.9,8.2-4.2,24.4,8.7,24.4H283c2.4,19,18.6,33.8,38.3,33.8c19.7,0,35.9-14.8,38.3-33.8h16.9
	C388.7,181.4,395.2,166.3,386.2,158z M212,471.4h-39.1v-172c0-10.8,8.8-19.6,19.6-19.6c10.8,0,19.6,8.8,19.6,19.6L212,471.4
	L212,471.4z M256.9,45.8c-31.6,0-57.3,25.7-57.3,57.4v168c-2.3-0.6-4.7-0.9-7.1-0.9c-2.5,0-4.8,0.3-7.1,0.9v-168
	c0-39.5,32.1-71.6,71.6-71.6c33.4,0,61.6,22.9,69.4,54.2c-4.7-0.6-9.1-0.5-14.6,0.9C304.6,63,282.5,45.8,256.9,45.8z M321.2,205.7
	c-14.4,0-26.4-10.5-28.7-24.3h57.3C347.6,195.2,335.6,205.7,321.2,205.7z M376.5,171.9c-30.2,0-88.5,0-110.4,0
	c-3.9,0-5.7-4.9-2.6-7.5c2.2-1.8,4.9-3,7.7-3.5c12.5-2,21.6-12.6,21.6-25.2v-12.2c0-15.7,12.8-28.5,28.5-28.5s28.5,12.8,28.5,28.5
	v12.2c0,12.5,9.3,23.3,21.6,25.2c3.1,0.5,6,1.9,8.4,4.1C382.3,167.4,380.1,171.9,376.5,171.9z"/>
<path d="M321.4,223.7c-2.6,0-4.8,2.1-4.8,4.8v7.3c0,2.6,2.1,4.8,4.8,4.8s4.8-2.1,4.8-4.8v-7.3C326.2,225.9,324,223.7,321.4,223.7z
	 M297.9,217.2c-2.3-1.3-5.2-0.5-6.5,1.8l-3.6,6.3c-1.3,2.3-0.5,5.2,1.8,6.5c2.3,1.3,5.2,0.6,6.5-1.8l3.6-6.3
	C301,221.4,300.2,218.5,297.9,217.2z M274.3,198l-6.3,3.6c-2.3,1.3-3.1,4.2-1.8,6.5c1.3,2.3,4.3,3.1,6.5,1.8l6.3-3.6
	c2.3-1.3,3.1-4.2,1.8-6.5C279.5,197.4,276.6,196.6,274.3,198z M375.2,202.5l-6.3-3.6c-2.3-1.3-5.2-0.5-6.5,1.8
	c-1.3,2.3-0.5,5.2,1.8,6.5l6.3,3.6c2.3,1.3,5.2,0.5,6.5-1.8C378.3,206.8,377.5,203.9,375.2,202.5z M351.5,219.4
	c-1.3-2.3-4.3-3.1-6.5-1.8c-2.3,1.3-3.1,4.2-1.8,6.5l3.6,6.3c1.3,2.3,4.3,3.1,6.5,1.8c2.3-1.3,3.1-4.2,1.8-6.5L351.5,219.4z"/>
</svg>
