<?xml version="1.0" encoding="utf-8"?>
<!-- Generator: Adobe Illustrator 24.0.0, SVG Export Plug-In . SVG Version: 6.00 Build 0)  -->
<svg version="1.1" id="Layer_1" xmlns="http://www.w3.org/2000/svg" xmlns:xlink="http://www.w3.org/1999/xlink" x="0px" y="0px"
	 viewBox="0 0 489.2 489.2" style="enable-background:new 0 0 489.2 489.2;" xml:space="preserve">
<g>
	<g>
		<path d="M245.2,28.1c-61.4,0-111.4,73.4-111.4,163.6s50,163.6,111.4,163.6S356.6,282,356.6,191.8S306.6,28.1,245.2,28.1z
			 M245.2,348.5c-57.6,0-104.4-70.3-104.4-156.7S187.6,35.1,245.2,35.1s104.4,70.3,104.4,156.7S302.8,348.5,245.2,348.5z"/>
	</g>
</g>
<g>
	<g>
		<path d="M387.9,161.5h-17.4c-1.9,0-3.5,1.6-3.5,3.5v285.5c0,1.9,1.6,3.5,3.5,3.5h17.4c1.9,0,3.5-1.6,3.5-3.5V164.9
			C391.4,163,389.8,161.5,387.9,161.5z M384.4,447H374V168.4h10.4V447z"/>
	</g>
</g>
<g>
	<g>
		<path d="M119.8,161.5h-17.4c-1.9,0-3.5,1.6-3.5,3.5v285.5c0,1.9,1.6,3.5,3.5,3.5h17.4c1.9,0,3.5-1.6,3.5-3.5V164.9
			C123.3,163,121.7,161.5,119.8,161.5z M116.3,447h-10.4V168.4h10.4V447z"/>
	</g>
</g>
<g>
	<g>
		<path d="M137.2,189.3h-17.4c-1.9,0-3.5,1.6-3.5,3.5c0,1.9,1.6,3.5,3.5,3.5h17.4c1.9,0,3.5-1.6,3.5-3.5
			C140.7,190.9,139.1,189.3,137.2,189.3z"/>
	</g>
</g>
<g>
	<g>
		<path d="M370.5,189.3h-17.4c-1.9,0-3.5,1.6-3.5,3.5c0,1.9,1.6,3.5,3.5,3.5h17.4c1.9,0,3.5-1.6,3.5-3.5
			C374,190.9,372.4,189.3,370.5,189.3z"/>
	</g>
</g>
<g>
	<g>
		<path d="M370.5,384.3H119.8c-1.9,0-3.5,1.6-3.5,3.5v38.3c0,1.9,1.6,3.5,3.5,3.5h250.7c1.9,0,3.5-1.6,3.5-3.5v-38.3
			C374,385.8,372.4,384.3,370.5,384.3z M367,422.6H123.3v-31.3H367V422.6z"/>
	</g>
</g>
<g>
	<g>
		<path d="M292.8,111.1c-1.4-1.4-3.6-1.4-4.9,0l-76.4,76.4c-1.4,1.4-1.4,3.6,0,4.9c0.7,0.7,1.6,1,2.5,1c0.9,0,1.8-0.3,2.5-1
			l76.4-76.4C294.1,114.6,294.1,112.4,292.8,111.1z"/>
	</g>
</g>
<g>
	<g>
		<path d="M257.2,108.3c-1.4-1.4-3.6-1.4-4.9,0l-9.6,9.6c-1.4,1.4-1.4,3.6,0,4.9c0.7,0.7,1.6,1,2.5,1c0.9,0,1.8-0.3,2.5-1l9.6-9.6
			C258.6,111.9,258.6,109.7,257.2,108.3z"/>
	</g>
</g>
<g>
	<g>
		<path d="M234.5,131c-1.4-1.4-3.6-1.4-4.9,0l-31.4,31.4c-1.4,1.4-1.4,3.6,0,4.9c0.7,0.7,1.6,1,2.5,1c0.9,0,1.8-0.3,2.5-1l31.4-31.4
			C235.9,134.6,235.9,132.4,234.5,131z"/>
	</g>
</g>
<g>
	<g>
		<path d="M272.8,171c-1.4-1.4-3.6-1.4-4.9,0L227,211.9c-1.4,1.4-1.4,3.6,0,4.9c0.7,0.7,1.6,1,2.5,1c0.9,0,1.8-0.3,2.5-1l40.9-40.9
			C274.1,174.6,274.1,172.4,272.8,171z"/>
	</g>
</g>
<g>
	<g>
		<path d="M217.9,225.9c-1.4-1.4-3.6-1.4-4.9,0l-12.9,12.9c-1.4,1.4-1.4,3.6,0,4.9c0.7,0.7,1.6,1,2.5,1c0.9,0,1.8-0.3,2.5-1
			l12.9-12.9C219.3,229.5,219.3,227.2,217.9,225.9z"/>
	</g>
</g>
</svg>
