<?xml version="1.0" encoding="utf-8"?>
<!-- Generator: Adobe Illustrator 24.0.0, SVG Export Plug-In . SVG Version: 6.00 Build 0)  -->
<svg version="1.1" id="Layer_1" xmlns="http://www.w3.org/2000/svg" xmlns:xlink="http://www.w3.org/1999/xlink" x="0px" y="0px"
	 viewBox="0 0 256 256" style="enable-background:new 0 0 256 256;" xml:space="preserve">
<style type="text/css">
	.st0{fill:none;}
	.st1{fill:none;stroke:#000000;stroke-width:8;stroke-linecap:round;stroke-linejoin:round;}
</style>
<rect class="st0" width="256" height="256"/>
<line class="st1" x1="80.5" y1="132.8" x2="171.4" y2="132.8"/>
<path class="st1" d="M50.3,95V72.3C50.3,55.6,63.8,42,80.5,42h90.8c16.7,0,30.3,13.6,30.3,30.3V95"/>
<path class="st1" d="M80.5,163.1v-37.8C80.5,108.5,67,95,50.3,95S20,108.5,20,125.2s13.6,30.3,30.3,30.3v37.8c0,4.2,3.4,7.6,7.6,7.6
	h136.2c4.2,0,7.6-3.4,7.6-7.6v-37.8c16.7,0,30.3-13.6,30.3-30.3S218.3,95,201.6,95s-30.3,13.6-30.3,30.3v37.8"/>
</svg>
