<?xml version="1.0" encoding="utf-8"?>
<!-- Generator: Adobe Illustrator 24.0.0, SVG Export Plug-In . SVG Version: 6.00 Build 0)  -->
<svg version="1.1" id="Layer_1" xmlns="http://www.w3.org/2000/svg" xmlns:xlink="http://www.w3.org/1999/xlink" x="0px" y="0px"
	 viewBox="0 0 512 512" style="enable-background:new 0 0 512 512;" xml:space="preserve">
<g>
	<g>
		<path d="M385.9,319.2c0-21.6-17.6-39.2-39.2-39.2h-41.5c-4.5-13.6-14.7-54.3,8.9-89.8c21.9-32.8,34.8-87.2,15.5-123.1
			c-9.3-17.4-30.2-38-76.9-38c-48.4,0-70.4,20.6-80.5,37.8c-20.6,35.6-9.4,87.3,10.9,122.9c23.9,41.8,14,78,9.4,90.2h-34
			c-21.6,0-39.2,17.6-39.2,39.2c0,17,11,31.4,26.2,36.8c-5.9,12-10.6,33.2,6.2,61.3c6,10,7.8,18.9,5.3,26.3
			c-3.9,11.7-17.1,17.2-17.2,17.3c-4,1.6-6,6.2-4.4,10.2c1.2,3.1,4.2,4.9,7.3,4.9c1,0,2-0.2,2.9-0.6c0.8-0.3,19.9-8.2,26.2-26.7
			c4.1-12,1.8-25.3-6.7-39.5c-16.2-27-7.3-44.7-3-50.9h27.6v39.2c0,4.3,3.5,7.8,7.8,7.8c4.3,0,7.8-3.5,7.8-7.8v-39.2h86.3v39.2
			c0,4.3,3.5,7.8,7.8,7.8s7.8-3.5,7.8-7.8v-39.2h27.3c4.3,6.1,13.2,23.9-3,50.9c-8.5,14.2-10.8,27.5-6.7,39.5
			c6.3,18.6,25.4,26.4,26.2,26.7c1,0.4,1.9,0.6,2.9,0.6c3.1,0,6-1.9,7.3-4.9c1.6-4-0.3-8.6-4.3-10.2c-0.1-0.1-13.3-5.6-17.2-17.3
			c-2.5-7.5-0.7-16.3,5.3-26.3c16.1-26.8,12.5-47.3,7.1-59.5C371.3,355,385.9,338.8,385.9,319.2z M196.7,181.9
			c-17.5-30.6-28.4-77.2-11-107.2c11.6-19.9,34.1-30,66.9-30c31.3,0,52.5,10,63.1,29.8c15.8,29.5,4.9,77.6-14.7,107
			c-25.1,37.6-17.8,79.1-12.3,98.5H209C214.6,261.8,220.8,224.2,196.7,181.9z M346.7,342.7H158.5c-13,0-23.6-10.6-23.6-23.5
			s10.6-23.5,23.6-23.5h141.1c0,0,0,0,0,0c0,0,0,0,0,0h47c13,0,23.6,10.6,23.6,23.5S359.7,342.7,346.7,342.7z"/>
	</g>
</g>
</svg>
