<?xml version="1.0" encoding="utf-8"?>
<!-- Generator: Adobe Illustrator 24.0.0, SVG Export Plug-In . SVG Version: 6.00 Build 0)  -->
<svg version="1.1" id="Layer_1" xmlns="http://www.w3.org/2000/svg" xmlns:xlink="http://www.w3.org/1999/xlink" x="0px" y="0px"
	 viewBox="0 0 489.7 489.7" style="enable-background:new 0 0 489.7 489.7;" xml:space="preserve">
<g id="XMLID_710_">
	<g>
		<g>
			<path d="M402.3,20h-310c-30.2,0-54.7,24.5-54.7,54.7v303.5c0,17.2,8,32.6,20.5,42.6v47.1h14V429c6.3,2.5,13.1,3.9,20.2,3.9h310
				c7,0,13.6-1.3,19.7-3.7v38.7h14v-46.7c12.8-10,21-25.6,21-43V74.7C457,44.5,432.5,20,402.3,20z M443,378.2
				c0,22.5-18.3,40.7-40.7,40.7H254V34h-14v384.9H92.3c-22.5,0-40.7-18.3-40.7-40.7V74.7C51.6,52.3,69.8,34,92.3,34h310
				c22.5,0,40.7,18.3,40.7,40.7L443,378.2L443,378.2z"/>
			<rect x="72.1" y="219.5" width="14" height="49"/>
			<rect x="408" y="219.5" width="14" height="49"/>
		</g>
	</g>
</g>
</svg>
