<?xml version="1.0" encoding="utf-8"?>
<!-- Generator: Adobe Illustrator 24.0.0, SVG Export Plug-In . SVG Version: 6.00 Build 0)  -->
<svg version="1.1" id="Layer_1" xmlns="http://www.w3.org/2000/svg" xmlns:xlink="http://www.w3.org/1999/xlink" x="0px" y="0px"
	 viewBox="0 0 512 512" style="enable-background:new 0 0 512 512;" xml:space="preserve">
<g>
	<g>
		<path d="M477.6,113H33.5c-1.9,0-3.5,1.6-3.5,3.5v14.1c0,1.9,1.6,3.5,3.5,3.5h444.1c1.9,0,3.5-1.6,3.5-3.5v-14.1
			C481.1,114.6,479.5,113,477.6,113z M474.1,127.1H37v-7h437V127.1z"/>
	</g>
</g>
<g>
	<g>
		<path d="M463.5,130.6c-1.9,0-3.5,1.6-3.5,3.5v229.1c0,5.8-4.7,10.6-10.6,10.6H61.7c-5.8,0-10.6-4.7-10.6-10.6V134.1
			c0-1.9-1.6-3.5-3.5-3.5c-1.9,0-3.5,1.6-3.5,3.5v229.1c0,9.7,7.9,17.6,17.6,17.6h387.7c9.7,0,17.6-7.9,17.6-17.6V134.1
			C467,132.2,465.4,130.6,463.5,130.6z"/>
	</g>
</g>
<g>
	<g>
		<path d="M255.6,130.6c-1.9,0-3.5,1.6-3.5,3.5v243.2c0,1.9,1.6,3.5,3.5,3.5c1.9,0,3.5-1.6,3.5-3.5V134.1
			C259.1,132.2,257.5,130.6,255.6,130.6z"/>
	</g>
</g>
<g>
	<g>
		<g>
			<path d="M417.7,144.7h-14.1c-1.9,0-3.5,1.6-3.5,3.5c0,1.9,1.6,3.5,3.5,3.5h14.1c1.9,0,3.5-1.6,3.5-3.5
				C421.2,146.3,419.6,144.7,417.7,144.7z"/>
			<path d="M445.9,144.7h-14.1c-1.9,0-3.5,1.6-3.5,3.5c0,1.9,1.6,3.5,3.5,3.5h10.6v45.8c0,1.9,1.6,3.5,3.5,3.5s3.5-1.6,3.5-3.5
				v-49.3C449.4,146.3,447.8,144.7,445.9,144.7z"/>
		</g>
	</g>
</g>
<g>
	<g>
		<path d="M65.2,275.1c-1.9,0-3.5,1.6-3.5,3.5v7c0,1.9,1.6,3.5,3.5,3.5s3.5-1.6,3.5-3.5v-7C68.8,276.7,67.2,275.1,65.2,275.1z"/>
	</g>
</g>
<g>
	<g>
		<path d="M65.2,299.8c-1.9,0-3.5,1.6-3.5,3.5v52.9c0,1.9,1.6,3.5,3.5,3.5s3.5-1.6,3.5-3.5v-52.9C68.8,301.4,67.2,299.8,65.2,299.8z
			"/>
	</g>
</g>
<g>
	<g>
		<path d="M82.9,373.8c-1.9,0-3.5,1.6-3.5,3.5V395h-7v-17.6c0-1.9-1.6-3.5-3.5-3.5c-1.9,0-3.5,1.6-3.5,3.5v21.1
			c0,1.9,1.6,3.5,3.5,3.5h14.1c1.9,0,3.5-1.6,3.5-3.5v-21.1C86.4,375.4,84.8,373.8,82.9,373.8z"/>
	</g>
</g>
<g>
	<g>
		<path d="M445.9,373.8c-1.9,0-3.5,1.6-3.5,3.5V395h-7v-17.6c0-1.9-1.6-3.5-3.5-3.5s-3.5,1.6-3.5,3.5v21.1c0,1.9,1.6,3.5,3.5,3.5
			h14.1c1.9,0,3.5-1.6,3.5-3.5v-21.1C449.4,375.4,447.8,373.8,445.9,373.8z"/>
	</g>
</g>
<g>
	<g>
		<path d="M225.6,239.9c-6.8,0-12.3,5.5-12.3,12.3c0,6.8,5.5,12.3,12.3,12.3c6.8,0,12.3-5.5,12.3-12.3
			C237.9,245.4,232.4,239.9,225.6,239.9z M225.6,257.5c-2.9,0-5.3-2.4-5.3-5.3c0-2.9,2.4-5.3,5.3-5.3c2.9,0,5.3,2.4,5.3,5.3
			C230.9,255.1,228.5,257.5,225.6,257.5z"/>
	</g>
</g>
<g>
	<g>
		<path d="M285.5,239.9c-6.8,0-12.3,5.5-12.3,12.3c0,6.8,5.5,12.3,12.3,12.3c6.8,0,12.3-5.5,12.3-12.3
			C297.9,245.4,292.3,239.9,285.5,239.9z M285.5,257.5c-2.9,0-5.3-2.4-5.3-5.3c0-2.9,2.4-5.3,5.3-5.3c2.9,0,5.3,2.4,5.3,5.3
			C290.8,255.1,288.4,257.5,285.5,257.5z"/>
	</g>
</g>
</svg>
