<?xml version="1.0" encoding="utf-8"?>
<!-- Generator: Adobe Illustrator 24.0.0, SVG Export Plug-In . SVG Version: 6.00 Build 0)  -->
<svg version="1.1" id="Layer_1" xmlns="http://www.w3.org/2000/svg" xmlns:xlink="http://www.w3.org/1999/xlink" x="0px" y="0px"
	 viewBox="0 0 64 64" style="enable-background:new 0 0 64 64;" xml:space="preserve">
<path d="M59.3,39.6h-1v-3.8c0-2.6-2.1-4.8-4.8-4.8h-1V18.7c0-3.7-3-6.7-6.7-6.7H19.3c-3.7,0-6.7,3-6.7,6.7V31h-1
	c-2.6,0-4.8,2.1-4.8,4.8v3.8H6c-0.5,0-1,0.4-1,1V51c0,0.5,0.4,1,1,1h7c0.4,0,0.8-0.3,0.9-0.6l0.7-2.2c0.4-1.1,1.5-1.9,2.7-1.9H48
	c1.2,0,2.3,0.8,2.7,1.9l0.7,2.2c0.1,0.4,0.5,0.7,1,0.6h6.9c0.5,0,1-0.4,1-1V40.6C60.2,40,59.8,39.6,59.3,39.6z M14.5,18.7
	c0-2.6,2.1-4.8,4.8-4.8H46c2.6,0,4.8,2.1,4.8,4.8V31h-3c0.3-0.8,0.1-1.2,0.2-2.9c0-1.6-1.3-2.9-2.9-2.9h-6.7c-1.6,0-2.9,1.3-2.9,2.9
	c0,1.7-0.1,2.1,0.2,2.9h-6.1c0.3-0.8,0.1-1.2,0.2-2.9c0-1.6-1.3-2.9-2.9-2.9h-6.7c-1.6,0-2.9,1.3-2.9,2.9c0,1.7-0.1,2.1,0.2,2.9h-3
	V18.7z M37.4,30.1v-1.9c0-0.5,0.4-1,1-1H45c0.5,0,1,0.4,1,1v1.9c0,0.5-0.4,1-1,1h-6.7C37.8,31,37.4,30.6,37.4,30.1z M19.3,30.1v-1.9
	c0-0.5,0.4-1,1-1h6.7c0.5,0,1,0.4,1,1v1.9c0,0.5-0.4,1-1,1h-6.7C19.7,31,19.3,30.6,19.3,30.1z M8.8,35.8c0-1.6,1.3-2.9,2.9-2.9h41.9
	c1.6,0,2.9,1.3,2.9,2.9v3.8H8.8V35.8z M58.3,50.1H53l-0.5-1.5c-0.6-1.9-2.5-3.3-4.5-3.3H17.3c-2,0-3.9,1.3-4.5,3.3l-0.5,1.5H6.9
	v-8.6h51.4V50.1z"/>
</svg>
