<?xml version="1.0" encoding="utf-8"?>
<!-- Generator: Adobe Illustrator 24.0.0, SVG Export Plug-In . SVG Version: 6.00 Build 0)  -->
<svg version="1.1" id="Layer_1" xmlns="http://www.w3.org/2000/svg" xmlns:xlink="http://www.w3.org/1999/xlink" x="0px" y="0px"
	 viewBox="0 0 512 512" style="enable-background:new 0 0 512 512;" xml:space="preserve">
<g>
	<g>
		<path d="M474.2,291.3c0,17.7-11.6,39-28.3,39H70.5c-17.5,0-35.4-17.7-35.4-35.4H28c0,21.2,21,42.5,42.5,42.5h375.3
			c21.2,0,35.4-24.8,35.4-46H474.2z"/>
	</g>
</g>
<g>
	<g>
		<path d="M417.5,139H98.8c-21.2,0-42.5,9.9-42.5,31.9v35.4h7.1v-35.4c0-17.1,17.8-24.8,35.4-24.8h318.7c18.8,0,28.3,8.3,28.3,24.8
			v35.4h7.1v-35.4C452.9,150.6,440,139,417.5,139z"/>
	</g>
</g>
<g>
	<g>
		<path d="M70.5,206.3H56.3c-23.4,0-28.3,9.6-28.3,17.7v70.8h7.1V224c0-7.1,7.1-10.6,21.2-10.6h14.2c11.3,0,14.2,2.2,14.2,10.6v53.1
			h7.1V224C91.7,208.4,81.5,206.3,70.5,206.3z"/>
	</g>
</g>
<g>
	<g>
		<path d="M460,206.3h-14.2c-23.4,0-28.3,9.6-28.3,17.7v53.1h7.1V224c0-7.1,7.1-10.6,21.2-10.6H460c11.3,0,14.2,2.2,14.2,10.6v70.8
			h7.1V224C481.2,208.4,471,206.3,460,206.3z"/>
	</g>
</g>
<g>
	<g>
		<rect x="91.7" y="270" width="332.9" height="7.1"/>
	</g>
</g>
<g>
	<g>
		<polygon points="84.7,330.2 84.7,347.9 74,347.9 74,330.2 67,330.2 67,355 91.7,355 91.7,330.2 		"/>
	</g>
</g>
<g>
	<g>
		<polygon points="435.2,330.2 435.2,347.9 424.6,347.9 424.6,330.2 417.5,330.2 417.5,355 442.3,355 442.3,330.2 		"/>
	</g>
</g>
<g>
	<g>
		<path d="M105.9,298.3c-5.2,0-14.2-11.3-14.2-17.7v-3.5h-7.1v3.5c0,9.8,11.4,24.8,21.2,24.8h251.4v-7.1H105.9z"/>
	</g>
</g>
<g>
	<g>
		<path d="M417.5,277.1v3.5c0,7.4-2.7,17.7-7.1,17.7h-21.2v7.1h21.2c10.4,0,14.2-14.8,14.2-24.8v-3.5H417.5z"/>
	</g>
</g>
<g>
	<g>
		<g>
			<path d="M74,170.9v17.7h7.1v-17.7c0-3.9,1.5-6.4,5.7-9.6l-4.3-5.7C78.3,158.8,74,163.1,74,170.9z"/>
			<path d="M417.5,156.7h-17.7v7.1h17.7c12,0,14.2,1.9,14.2,7.1h7.1C438.8,156.7,424.9,156.7,417.5,156.7z"/>
			<rect x="371.5" y="156.7" width="10.6" height="7.1"/>
		</g>
	</g>
</g>
</svg>
